# AST/ASF file generated using VICON BodyLanguage
# -----------------------------------------------
:version 1.10
:name VICON
:units
  mass 1.0
  length 0.45
  angle deg
:documentation
   .ast/.asf automatically generated from VICON data using
   VICON BodyBuilder and BodyLanguage model FoxedUp or BRILLIANT.MOD
:root
   order TX TY TZ RX RY RZ
   axis XYZ
   position 0 0 0  
   orientation 0 0 0 
:bonedata
  begin
     id 1 
     name lhipjoint
     direction 0.606768 -0.715223 0.346827 
     length 2.41543 
     axis 0 0 0  XYZ
  end
  begin
     id 2 
     name lfemur
     direction 0.34202 -0.939693 0  
     length 7.2778  
     axis 0 0 20  XYZ
    dof rx ry rz
    limits (-160.0 20.0)
           (-70.0 70.0)
           (-60.0 70.0)
  end
  begin
     id 3 
     name ltibia
     direction 0.34202 -0.939693 0   
     length 7.61811   
     axis 0 0 20   XYZ
    dof rx
    limits (-10.0 170.0)
  end
  begin
     id 4 
     name lfoot
     direction 0.0823924 -0.226371 0.97055   
     length 2.33618   
     axis -90 7.62852e-016 20   XYZ
    dof rx rz
    limits (-45.0 90.0)
           (-70.0 20.0)
  end
  begin
     id 5 
     name ltoes
     direction 1.53554e-011 -4.21934e-011 1   
     length 1.17015   
     axis -90 7.62852e-016 20   XYZ
    dof rx
    limits (-90.0 20.0)
  end
  begin
     id 6 
     name rhipjoint
     direction -0.6077 -0.714582 0.346516   
     length 2.4176  
     axis 0 0 0  XYZ 
  end
  begin
     id 7 
     name rfemur
     direction -0.34202 -0.939693 0   
     length 7.28127   
     axis 0 0 -20   XYZ
    dof rx ry rz
    limits (-160.0 20.0)
           (-70.0 70.0)
           (-70.0 60.0)
  end
  begin
     id 8 
     name rtibia
     direction -0.34202 -0.939693 0   
     length 7.77648   
     axis 0 0 -20   XYZ
    dof rx
    limits (-10.0 170.0)
 end
 begin
     id 9 
     name rfoot
     direction -0.0809463 -0.222398 0.97159   
     length 2.37533  
     axis -90 -7.62852e-016 -20   XYZ
    dof rx rz
    limits (-45.0 90.0)
           (-20.0 70.0)
  end
  begin
     id 10 
     name rtoes
     direction -1.53568e-011 -4.21714e-011 1   
     length 1.18972   
     axis -90 -7.62852e-016 -20   XYZ
    dof rx
    limits (-90.0 20.0)
  end
  begin
     id 11 
     name lowerback
     direction 0.010968 0.991932 -0.126297   
     length 2.21698   
     axis 0 0 0   XYZ
    dof rx ry rz
    limits (-20.0 45.0)
           (-30.0 30.0)
           (-30.0 30.0)
  end
  begin
     id 12 
     name upperback
     direction 0.0167007 0.997503 -0.0686276   
     length 2.22371   
     axis 0 0 0   XYZ
    dof rx ry rz
    limits (-20.0 45.0)
           (-30.0 30.0)
           (-30.0 30.0)
  end
  begin
     id 13 
     name thorax
     direction 0.0111721 0.999885 -0.0102878   
     length 2.25242   
     axis 0 0 0   XYZ
    dof rx ry rz
    limits (-20.0 45.0)
           (-30.0 30.0)
           (-30.0 30.0)
  end
  begin
     id 14 
     name lowerneck
     direction -0.0120265 0.990428 0.137508   
     length 1.57674   
     axis 0 0 0   XYZ
    dof rx ry rz
    limits (-20.0 45.0)
           (-30.0 30.0)
           (-30.0 30.0)
  end
  begin
     id 15 
     name upperneck
     direction 0.0175669 0.998907 0.0433089   
     length 1.5618   
     axis 0 0 0   XYZ
    dof rx ry rz
    limits (-20.0 45.0)
           (-30.0 30.0)
           (-30.0 30.0)
  end
  begin
     id 16
     name head
     direction 0.00754609 0.99997 0.00185367  
     length 1.60579  
     axis 0 0 0   XYZ
    dof rx ry rz
    limits (-20.0 45.0)
           (-30.0 30.0)
           (-30.0 30.0)
  end
  begin
     id 17 
     name lclavicle
     direction 0.885866 0.429166 -0.176231  
     length 3.44967  
     axis 0 0 0   XYZ
    dof ry rz
    limits (-20.0 10.0)
           (0.0 20.0)
  end
  begin
     id 18 
     name lhumerus
     direction 1 -4.48973e-011 -1.90255e-027   
     length 5.20607   
     axis 180 -30 -90   XYZ
    dof rx ry rz
    limits (-60.0 90.0)
           (-90.0 90.0)
           (-90.0 90.0)
  end
  begin
     id 19
     name lradius
     direction 1 -4.48956e-011 9.87925e-027   
     length 3.39961   
     axis 180 -30 -90   XYZ
    dof rx
    limits (-10.0 170.0)
  end
  begin
     id 20
     name lwrist
     direction 1 -4.48985e-011 1.73247e-026   
     length 1.6998   
     axis -9.60847e-015 90 90   XYZ
    dof ry
    limits (-180.0 0.0)
 end
  begin
     id 21 
     name lhand
     direction 1 -4.48798e-011 3.46119e-026   
     length 0.519693   
     axis -2.21073e-014 90 90   XYZ
    dof rx rz
    limits (-90.0 90.0)
           (-45.0 45.0)
  end
  begin
     id 22 
     name lfingers
     direction 1 -4.48938e-011 6.92797e-026   
     length 0.41899   
     axis -4.42155e-014 90 90   XYZ
    dof rx
    limits (0.0 90.0)
  end
  begin
     id 23
     name lthumb
     direction 0.707107 -6.34952e-011 0.707107   
     length 0.601588   
     axis -90 45 6.0103e-014   XYZ
    dof rx rz
    limits (-45.0 45.0)
           (-45.0 45.0)
  end
  begin
     id 24 
     name rclavicle
     direction -0.866736 0.456792 -0.200276   
     length 3.45032  
     axis 0 0 0   XYZ 
    dof ry rz
    limits (-10.0 20.0)
           (-20.0 0.0)
  end
  begin
     id 25 
     name rhumerus
     direction -1 -4.4897e-011 8.65094e-028  
     length 5.32214   
     axis 180 30 90   XYZ
    dof rx ry rz
    limits (-90.0 60.0)
           (-90.0 90.0)
           (-90.0 90.0)
  end
  begin
     id 26 
     name rradius
     direction -1 -4.48987e-011 1.08427e-026   
     length 3.51208   
     axis 180 30 90   XYZ
    dof rx
    limits (-10.0 170.0)
  end
  begin
     id 27 
     name rwrist
     direction -1 -4.48961e-011 1.73222e-026   
     length 1.75604   
     axis -9.60847e-015 -90 -90   XYZ
    dof ry
    limits (-180.0 0.0)
  end
  begin
     id 28
     name rhand
     direction -1 -4.48895e-011 3.46314e-026   
     length 0.586681   
     axis -2.21073e-014 -90 -90   XYZ
    dof rx rz
    limits (-90.0 90.0)
           (-45.0 45.0)
  end
  begin
     id 29
     name rfingers
     direction -1 -4.48968e-011 6.92916e-026   
     length 0.472997   
     axis -4.42155e-014 -90 -90   XYZ
    dof rx
    limits (0.0 90.0)
  end
  begin
     id 30
     name rthumb
     direction -0.707107 -6.34848e-011 0.707107   
     length 0.679133   
     axis -90 -45 -6.0103e-014   XYZ
    dof rx rz
    limits (-45.0 45.0)
           (-45.0 45.0)
  end
:hierarchy
  begin
    root lhipjoint rhipjoint lowerback
    lhipjoint lfemur
    lfemur ltibia
    ltibia lfoot
    lfoot ltoes
    rhipjoint rfemur
    rfemur rtibia
    rtibia rfoot
    rfoot rtoes
    lowerback upperback
    upperback thorax
    thorax lowerneck lclavicle rclavicle
    lowerneck upperneck
    upperneck head
    lclavicle lhumerus
    lhumerus lradius
    lradius lwrist
    lwrist lhand lthumb
    lhand lfingers
    rclavicle rhumerus
    rhumerus rradius
    rradius rwrist
    rwrist rhand rthumb
    rhand rfingers
  end

#!OML:ASF H:\Dans Jumps\Project 1\Capture day 1\Session 1\subject.ASF
:FULLY-SPECIFIED
:DEGREES
63
root 0.23075 17.5181 -14.361 8.85737 -0.471628 -1.39146
lowerback 2.83688 -0.0844397 -0.193158
upperback 6.45774 -0.180983 1.7022
thorax 5.09195 -0.148876 1.86833
lowerneck -11.8936 0.483024 -1.24168
upperneck 34.579 0.878232 0.434088
head 13.6693 0.275515 0.522471
rclavicle 1.78906e-015 1.05356e-014
rhumerus -31.1569 -8.70123 -80.6695
rradius 37.4634
rwrist 18.248
rhand -20.8956 -27.7865
rfingers 7.12502
rthumb 5.47517 -57.6958
lclavicle 1.78906e-015 1.05356e-014
lhumerus -26.9152 -3.61193 87.4603
lradius 28.9683
lwrist 14.7186
lhand -26.5619 -4.1268
lfingers 7.12502
lthumb 0.00301951 25.8529
rfemur -21.7228 -3.05881 19.9437
rtibia 27.2419
rfoot -13.2471 -3.71932
rtoes 9.16274
lfemur -20.6987 7.23253 -18.9108
ltibia 24.8266
lfoot -11.0551 4.45742
ltoes 4.73279
64
root 0.231323 17.5174 -14.3607 8.85449 -0.464722 -1.39458
lowerback 2.8474 -0.0874395 -0.191534
upperback 6.46205 -0.185118 1.7061
thorax 5.0907 -0.150982 1.87142
lowerneck -11.8956 0.482313 -1.24326
upperneck 34.5792 0.881761 0.422296
head 13.67 0.275292 0.518591
rclavicle 7.35503e-015 5.36719e-015
rhumerus -31.1354 -8.69331 -80.674
rradius 37.4673
rwrist 18.2589
rhand -20.8947 -27.7917
rfingers 7.12502
rthumb 5.47605 -57.701
lclavicle 7.35503e-015 5.36719e-015
lhumerus -26.8966 -3.59569 87.4514
lradius 28.9594
lwrist 14.6877
lhand -26.5987 -4.17422
lfingers 7.12502
lthumb -0.0325457 25.8055
rfemur -21.7296 -3.05999 19.9456
rtibia 27.2649
rfoot -13.2571 -3.72814
rtoes 9.13978
lfemur -20.7097 7.23493 -18.9091
ltibia 24.8535
lfoot -11.0679 4.45277
ltoes 4.73289
65
root 0.231969 17.5168 -14.3602 8.85265 -0.458515 -1.39551
lowerback 2.85616 -0.0896973 -0.191196
upperback 6.46657 -0.188245 1.70925
thorax 5.09064 -0.152635 1.87448
lowerneck -11.8966 0.480934 -1.24626
upperneck 34.5795 0.884014 0.412466
head 13.6704 0.274601 0.51555
rclavicle 2.38542e-015 3.97569e-016
rhumerus -31.1143 -8.68831 -80.6769
rradius 37.4682
rwrist 18.2711
rhand -20.8994 -27.8027
rfingers 7.12502
rthumb 5.47152 -57.7121
lclavicle 2.38542e-015 3.97569e-016
lhumerus -26.8762 -3.58336 87.4441
lradius 28.9462
lwrist 14.662
lhand -26.6213 -4.18296
lfingers 7.12502
lthumb -0.0543339 25.7968
rfemur -21.7367 -3.06113 19.9448
rtibia 27.2869
rfoot -13.2656 -3.73723
rtoes 9.1096
lfemur -20.7192 7.23651 -18.9102
ltibia 24.8772
lfoot -11.0802 4.4486
ltoes 4.73341
66
root 0.232642 17.5161 -14.3597 8.85366 -0.453513 -1.39533
lowerback 2.86159 -0.0917444 -0.193208
upperback 6.47114 -0.191124 1.7128
thorax 5.09254 -0.154303 1.87927
lowerneck -11.8968 0.479743 -1.25151
upperneck 34.5789 0.886243 0.405149
head 13.6702 0.273943 0.513895
rclavicle -1.2921e-015 1.2921e-014
rhumerus -31.0914 -8.68573 -80.678
rradius 37.4657
rwrist 18.2846
rhand -20.9029 -27.8129
rfingers 7.12502
rthumb 5.4681 -57.7223
lclavicle -1.2921e-015 1.2921e-014
lhumerus -26.855 -3.5731 87.4386
lradius 28.9304
lwrist 14.6434
lhand -26.6254 -4.1562
lfingers 7.12502
lthumb -0.0583304 25.8235
rfemur -21.7469 -3.06191 19.9428
rtibia 27.308
rfoot -13.2725 -3.74631
rtoes 9.07328
lfemur -20.7303 7.2379 -18.9129
ltibia 24.8985
lfoot -11.0924 4.44519
ltoes 4.73306
67
root 0.233333 17.5156 -14.3591 8.85488 -0.448656 -1.3936
lowerback 2.86784 -0.0946886 -0.198566
upperback 6.47412 -0.195195 1.71726
thorax 5.09235 -0.156735 1.88686
lowerneck -11.892 0.48074 -1.25571
upperneck 34.5771 0.891919 0.395982
head 13.6683 0.27468 0.511789
rclavicle 8.94531e-016 1.74931e-014
rhumerus -31.0731 -8.6804 -80.6758
rradius 37.4619
rwrist 18.2999
rhand -20.911 -27.8196
rfingers 7.12502
rthumb 5.46025 -57.7293
lclavicle 8.94531e-016 1.74931e-014
lhumerus -26.8393 -3.55555 87.4339
lradius 28.9153
lwrist 14.628
lhand -26.6271 -4.12149
lfingers 7.12502
lthumb -0.0599475 25.8582
rfemur -21.7561 -3.06175 19.9388
rtibia 27.3283
rfoot -13.2789 -3.75624
rtoes 9.04201
lfemur -20.7399 7.23788 -18.9177
ltibia 24.9184
lfoot -11.1052 4.44465
ltoes 4.71969
68
root 0.234073 17.5151 -14.3584 8.85708 -0.444519 -1.39026
lowerback 2.87382 -0.0975207 -0.20501
upperback 6.47763 -0.199085 1.72075
thorax 5.09287 -0.15911 1.89406
lowerneck -11.8879 0.48296 -1.25748
upperneck 34.574 0.898789 0.38665
head 13.666 0.276229 0.50936
rclavicle 2.18663e-015 -5.1684e-015
rhumerus -31.0562 -8.67702 -80.6725
rradius 37.4578
rwrist 18.3136
rhand -20.9193 -27.8141
rfingers 7.12502
rthumb 5.45224 -57.7239
lclavicle 2.18663e-015 -5.1684e-015
lhumerus -26.8248 -3.53856 87.4294
lradius 28.9015
lwrist 14.62
lhand -26.6333 -4.09762
lfingers 7.12502
lthumb -0.0658954 25.8821
rfemur -21.7659 -3.06295 19.9329
rtibia 27.3483
rfoot -13.286 -3.76403
rtoes 9.01949
lfemur -20.7496 7.23628 -18.9244
ltibia 24.9378
lfoot -11.1177 4.44698
ltoes 4.70187
69
root 0.234799 17.5145 -14.3578 8.85959 -0.442537 -1.38776
lowerback 2.88162 -0.100311 -0.212509
upperback 6.48006 -0.202918 1.72496
thorax 5.09123 -0.161513 1.90258
lowerneck -11.8803 0.4863 -1.26055
upperneck 34.5681 0.906545 0.380168
head 13.6617 0.278384 0.508385
rclavicle 6.95746e-016 -9.93923e-016
rhumerus -31.0439 -8.67177 -80.6669
rradius 37.4527
rwrist 18.3292
rhand -20.9286 -27.7988
rfingers 7.12502
rthumb 5.44333 -57.7089
lclavicle 6.95746e-016 -9.93923e-016
lhumerus -26.8174 -3.51594 87.4254
lradius 28.8911
lwrist 14.6163
lhand -26.6393 -4.09538
lfingers 7.12502
lthumb -0.0717588 25.8844
rfemur -21.7761 -3.06143 19.9276
rtibia 27.3683
rfoot -13.294 -3.77141
rtoes 9.00156
lfemur -20.7595 7.23443 -18.9302
ltibia 24.9574
lfoot -11.1297 4.45226
ltoes 4.68408
70
root 0.235566 17.514 -14.3572 8.86307 -0.440356 -1.38532
lowerback 2.89097 -0.102771 -0.219019
upperback 6.48147 -0.20625 1.72814
thorax 5.08759 -0.163572 1.90949
lowerneck -11.8717 0.489794 -1.26107
upperneck 34.5609 0.913315 0.375111
head 13.6565 0.280638 0.507368
rclavicle -5.96354e-016 3.37934e-015
rhumerus -31.0388 -8.66922 -80.6603
rradius 37.4499
rwrist 18.3404
rhand -20.9411 -27.7815
rfingers 7.12502
rthumb 5.43121 -57.6919
lclavicle -5.96354e-016 3.37934e-015
lhumerus -26.8172 -3.49562 87.4214
lradius 28.8849
lwrist 14.6202
lhand -26.6509 -4.11728
lfingers 7.12502
lthumb -0.0829155 25.8624
rfemur -21.7876 -3.06115 19.9225
rtibia 27.3893
rfoot -13.3037 -3.77761
rtoes 8.99208
lfemur -20.7712 7.23072 -18.9362
ltibia 24.978
lfoot -11.1399 4.45934
ltoes 4.66493
71
root 0.236346 17.5134 -14.3566 8.86626 -0.439524 -1.38342
lowerback 2.90061 -0.104439 -0.22549
upperback 6.48375 -0.208533 1.73123
thorax 5.08468 -0.165113 1.91631
lowerneck -11.8625 0.493015 -1.26369
upperneck 34.5497 0.918742 0.374307
head 13.6495 0.282626 0.508188
rclavicle -7.95139e-016 8.34896e-015
rhumerus -31.0372 -8.66881 -80.6521
rradius 37.4463
rwrist 18.3492
rhand -20.9556 -27.7621
rfingers 7.12502
rthumb 5.41719 -57.6729
lclavicle -7.95139e-016 8.34896e-015
lhumerus -26.8218 -3.4804 87.4195
lradius 28.8818
lwrist 14.6314
lhand -26.6675 -4.16588
lfingers 7.12502
lthumb -0.0989729 25.8138
rfemur -21.7999 -3.06125 19.918
rtibia 27.4115
rfoot -13.3142 -3.78181
rtoes 8.9802
lfemur -20.7837 7.22748 -18.9417
ltibia 25.0002
lfoot -11.1499 4.46718
ltoes 4.65157
72
root 0.237164 17.5128 -14.3561 8.86976 -0.438095 -1.38373
lowerback 2.91153 -0.105394 -0.229958
upperback 6.48607 -0.20988 1.73475
thorax 5.08104 -0.166098 1.92246
lowerneck -11.8521 0.495155 -1.26842
upperneck 34.5341 0.921246 0.378875
head 13.6401 0.283822 0.511053
rclavicle -8.94531e-016 -1.37161e-014
rhumerus -31.04 -8.67131 -80.6423
rradius 37.4423
rwrist 18.3535
rhand -20.9731 -27.7389
rfingers 7.12502
rthumb 5.4003 -57.6501
lclavicle -8.94531e-016 -1.37161e-014
lhumerus -26.8311 -3.47309 87.4195
lradius 28.8827
lwrist 14.6475
lhand -26.6835 -4.21976
lfingers 7.12502
lthumb -0.114435 25.76
rfemur -21.8134 -3.06369 19.9163
rtibia 27.4349
rfoot -13.3258 -3.78444
rtoes 8.96019
lfemur -20.7985 7.22523 -18.9452
ltibia 25.0246
lfoot -11.1601 4.47345
ltoes 4.63754
73
root 0.238064 17.5121 -14.3555 8.87167 -0.437202 -1.38341
lowerback 2.92507 -0.105756 -0.233815
upperback 6.48888 -0.210381 1.73708
thorax 5.07639 -0.166596 1.92705
lowerneck -11.8427 0.497298 -1.27277
upperneck 34.5148 0.922613 0.386434
head 13.6294 0.284992 0.514853
rclavicle -4.07509e-015 -1.80894e-014
rhumerus -31.0477 -8.676 -80.6319
rradius 37.4383
rwrist 18.356
rhand -20.9934 -27.7172
rfingers 7.12502
rthumb 5.38069 -57.6289
lclavicle -4.07509e-015 -1.80894e-014
lhumerus -26.8437 -3.47831 87.4205
lradius 28.8862
lwrist 14.6705
lhand -26.6954 -4.27067
lfingers 7.12502
lthumb -0.125915 25.709
rfemur -21.8258 -3.06633 19.9134
rtibia 27.4592
rfoot -13.338 -3.78623
rtoes 8.93926
lfemur -20.8123 7.22154 -18.9492
ltibia 25.051
lfoot -11.1712 4.48024
ltoes 4.63016
